<svg width="19" height="19" viewBox="0 0 19 19" fill="none" xmlns="http://www.w3.org/2000/svg">
<path fill-rule="evenodd" clip-rule="evenodd" d="M15.6359 7.35367C15.6216 5.17303 16.7307 3.35534 18.202 2.98522C16.9682 1.49325 15.084 0.905831 13.3429 0.9172C12.7452 0.921168 12.172 1.08741 11.6388 1.39018C10.4601 2.05942 9.03734 2.06876 7.84996 1.41506C7.31285 1.11937 6.73745 0.960636 6.13974 0.964497C3.24256 0.983588 -0.0307466 2.66464 0.000248962 7.37265C0.0311373 12.0807 3.35442 18.0327 6.25171 18.0136C6.91774 18.0093 7.55352 17.8033 8.13729 17.4314C9.18138 16.7665 10.509 16.7577 11.5618 17.409C12.1504 17.773 12.7888 17.9707 13.4549 17.9664C15.4593 17.9532 17.63 15.0792 18.7673 11.7502C17.0509 11.7376 15.6517 9.77872 15.6359 7.35367Z" fill="#686868"/>
</svg>
